<?xml version="1.0" standalone="no"?>
<!DOCTYPE svg PUBLIC "-//W3C//DTD SVG 20010904//EN"
 "http://www.w3.org/TR/2001/REC-SVG-20010904/DTD/svg10.dtd">
<svg version="1.0" xmlns="http://www.w3.org/2000/svg"
 width="1024.000000pt" height="1024.000000pt" viewBox="0 0 1024.000000 1024.000000"
 preserveAspectRatio="xMidYMid meet">

<g transform="translate(0.000000,1024.000000) scale(0.100000,-0.100000)"
fill="#000000" stroke="none">
<path d="M1610 5110 l0 -3520 3510 0 3510 0 0 3520 0 3520 -3510 0 -3510 0 0
-3520z m6950 0 l0 -3450 -3443 0 -3442 0 -1 3450 -1 3450 3443 0 3444 0 0
-3450z"/>
<path d="M4095 6674 c-501 -88 -980 -492 -1240 -1047 -43 -93 -105 -266 -105
-294 0 -32 -261 7 -369 55 -49 22 -71 19 -71 -9 0 -40 166 -93 333 -105 l89
-7 -6 -36 c-37 -216 -33 -395 12 -538 41 -128 95 -215 190 -305 206 -193 504
-245 786 -136 221 85 452 312 569 560 44 93 56 137 46 166 -7 18 -15 23 -36
20 -24 -3 -32 -15 -70 -102 -114 -261 -347 -510 -551 -586 -230 -87 -443 -58
-579 78 -60 60 -95 125 -124 227 -32 112 -32 331 -1 495 36 192 20 171 153
196 343 66 620 170 924 349 411 242 637 576 561 829 -50 166 -242 237 -511
190z m307 -69 c153 -53 177 -252 55 -459 -185 -317 -675 -626 -1197 -756 -63
-15 -133 -31 -155 -35 -22 -3 -48 -8 -57 -11 -11 -3 -18 0 -18 7 0 25 64 187
120 306 119 251 244 429 424 609 285 283 607 415 828 339z"/>
<path d="M5953 5751 c-56 -41 -78 -90 -78 -176 0 -70 2 -76 50 -141 26 -35
-267 -539 -434 -746 -115 -143 -225 -224 -275 -205 -29 11 -37 53 -25 125 26
164 122 382 368 834 14 26 23 50 19 53 -4 4 -28 2 -55 -4 -26 -6 -73 -13 -103
-16 l-55 -6 -47 -82 c-25 -45 -88 -161 -138 -257 -111 -211 -172 -315 -250
-419 -146 -197 -279 -280 -318 -198 -41 85 79 401 289 768 40 68 80 139 90
157 26 46 25 66 -3 58 -13 -4 -61 -12 -108 -18 l-86 -12 -73 -128 c-124 -219
-245 -488 -271 -604 -6 -27 -11 -84 -11 -127 1 -97 25 -150 86 -184 92 -52
208 -13 335 115 42 42 101 114 130 159 30 45 55 81 57 80 1 -2 -3 -21 -9 -43
-6 -21 -11 -77 -12 -124 0 -69 4 -93 22 -126 42 -81 151 -106 247 -57 159 82
403 408 623 833 36 69 66 126 68 128 3 5 83 -37 115 -59 59 -41 47 -102 -48
-249 -140 -219 -193 -348 -193 -469 1 -140 82 -221 210 -209 102 10 217 100
345 269 l75 100 -6 -68 c-8 -83 14 -181 53 -231 56 -74 175 -92 274 -42 65 34
173 143 241 245 l60 89 -9 -49 c-14 -84 -9 -186 11 -228 29 -60 69 -82 146
-82 57 0 73 4 124 35 32 19 93 72 136 117 88 93 310 413 310 447 0 3 -9 10
-19 16 -18 9 -30 -5 -115 -132 -168 -254 -293 -389 -372 -404 -52 -10 -70 11
-67 83 3 74 30 162 107 342 57 135 188 394 266 529 35 59 26 73 -31 53 -18 -6
-50 -11 -73 -12 -73 -2 -85 -10 -126 -84 -42 -76 -38 -77 -55 11 -7 32 -45 75
-81 90 -49 21 -139 17 -215 -9 -185 -63 -339 -215 -479 -472 -127 -235 -310
-464 -411 -515 -56 -29 -100 -24 -118 14 -31 66 24 210 193 499 88 151 108
216 85 280 -18 52 -55 77 -162 113 -45 15 -94 33 -108 40 l-27 13 34 98 c41
119 43 165 9 198 -32 33 -63 31 -112 -4z m1291 -322 c31 -14 56 -65 56 -112 0
-58 -38 -165 -112 -312 -105 -209 -184 -322 -302 -433 -200 -189 -289 -38
-169 288 70 192 179 366 302 483 89 85 164 114 225 86z"/>
</g>
</svg>
